<svg xmlns="http://www.w3.org/2000/svg" viewBox="0 0 24 24" fill="none">
  <rect width="24" height="24" rx="6" fill="url(#ig)"/>
  <defs>
    <linearGradient id="ig" x1="3" y1="21" x2="21" y2="3" gradientUnits="userSpaceOnUse">
      <stop stop-color="#F58529"/>
      <stop offset=".25" stop-color="#DD2A7B"/>
      <stop offset=".5" stop-color="#8134AF"/>
      <stop offset=".75" stop-color="#515BD4"/>
      <stop offset="1" stop-color="#405DE6"/>
    </linearGradient>
  </defs>
  <path d="M15.5 5.25h-7a3.25 3.25 0 0 0-3.25 3.25v7a3.25 3.25 0 0 0 3.25 3.25h7a3.25 3.25 0 0 0 3.25-3.25v-7A3.25 3.25 0 0 0 15.5 5.25zm2.25 10.25a2.25 2.25 0 0 1-2.25 2.25h-7a2.25 2.25 0 0 1-2.25-2.25v-7A2.25 2.25 0 0 1 8.5 6.25h7a2.25 2.25 0 0 1 2.25 2.25v7z" fill="white"/>
  <path d="M12 8.5A3.5 3.5 0 1 0 12 15.5 3.5 3.5 0 0 0 12 8.5zm0 5.5a2 2 0 1 1 0-4 2 2 0 0 1 0 4z" fill="white"/>
  <circle cx="16.5" cy="7.5" r="1" fill="white"/>
</svg>
