<svg xmlns="http://www.w3.org/2000/svg" width="16" height="16" fill="none" viewBox="0 0 16 16">
  <path fill="url(#a)" d="M8 2.667h.4c1.4.012 2.173.058 2.712.241.68.235 1.166.588 1.51 1.235.226.417.32.857.372 1.32.07.64.07 1.373.073 2.537v.4c-.003 1.164-.003 1.897-.073 2.537-.052.463-.146.903-.372 1.32-.344.647-.83 1-.51 1.235-.539.183-1.312.23-2.712.24h-.8c-1.4-.01-2.173-.057-2.712-.24-.68-.235-1.166-.588-1.51-1.235-.226-.417-.32-.857-.372-1.32-.07-.64-.07-1.373-.073-2.537v-.4c.003-1.164.003-1.897.073-2.537.052-.463.146-.903.372-1.32.344-.647.83-1 .51-1.235.539-.183 1.312-.229 2.712-.24H8Zm0-1.334h-.412c-1.09.008-1.84.043-2.468.248-.714.233-1.304.71-1.7 1.453-.287.53-.4 1.083-.456 1.593C3 5.814 3 6.585 3 7.78v.441c0 1.195 0 1.966.044 2.669.056.51.17 1.063.456 1.593.396.743.986 1.22 1.7 1.453.628.205 1.378.24 2.468.249h.664c1.09-.01 1.84-.044 2.468-.249.714-.233 1.304-.71 1.7-1.453.287-.53.4-1.083.456-1.593.044-.703.044-1.474.044-2.669V7.78c0-1.195 0-1.966-.044-2.669-.056-.51-.17-1.063-.456-1.593-.396-.743-.986-1.22-1.7-1.453-.628-.205-1.378-.24-2.468-.249H8Z"/>
  <path fill="#fff" d="M8 4.667a3.333 3.333 0 1 0 0 6.667 3.333 3.333 0 0 0 0-6.667ZM8 10a2 2 0 1 1 0-4 2 2 0 0 1 0 4Zm3.666-5.813a.78.78 0 1 1-1.56 0 .78.78 0 0 1 1.56 0Z"/>
  <defs>
    <linearGradient id="a" x1="2.667" x2="13.333" y1="13.333" y2="2.667" gradientUnits="userSpaceOnUse">
      <stop stop-color="#F58529"/>
      <stop offset=".4" stop-color="#DD2A7B"/>
      <stop offset=".7" stop-color="#8134AF"/>
      <stop offset=".9" stop-color="#515BD4"/>
      <stop offset="1" stop-color="#405DE6"/>
    </linearGradient>
  </defs>
</svg>
