<svg xmlns="http://www.w3.org/2000/svg" viewBox="0 0 24 24" fill="none">
  <path d="M12 2.5a9.5 9.5 0 0 0-8.2 14.52L3 21l4.12-1.07A9.47 9.47 0 0 0 12 21.5a9.5 9.5 0 0 0 0-19z" fill="#25D366"/>
  <path d="M10.57 7.5h.61c.2 0 .43.31.49.43l.7 1.61c.06.15.05.26-.02.36l-.52.8a.27.27 0 0 0 0 .27c.14.3.63 1.13 1.43 1.61.8.48 1.26.51 1.6.45a.27.27 0 0 0 .2-.2l.41-.98c.06-.15.2-.2.33-.14l1.69.68c.12.05.2.2.17.33-.12.58-.52 1.87-2.19 2.04-1.93.19-3.47-.81-4.53-1.87-1.06-1.06-2.08-2.68-1.89-4.6.16-1.66 1.4-2.02 1.98-2.12z" fill="white"/>
</svg>
